REM MD5 555abf19bbc344bd2d684e1ddacf59ae
FILE "Dengeki PlayStation D3 (Japan).bin" BINARY
  TRACK 01 MODE2/2352
    FLAGS DCP
    INDEX 01 00:00:00
  TRACK 02 AUDIO
    FLAGS DCP
    INDEX 00 59:22:33
    INDEX 01 59:24:33
  TRACK 03 AUDIO
    FLAGS DCP
    INDEX 00 62:24:64
    INDEX 01 62:26:64
  TRACK 04 AUDIO
    FLAGS DCP
    INDEX 00 65:16:15
    INDEX 01 65:18:15
REM LEADOUT 68:48:15
